<svg xmlns="http://www.w3.org/2000/svg" viewBox="0 0 1212.35 1225.75"><path d="M798.92,253.21H636.45a2,2,0,0,1-2-2V116.52A5.5,5.5,0,0,0,629,111h-45.7a5.5,5.5,0,0,0-5.5,5.5V251.21a2,2,0,0,1-2,2H413.06a5.5,5.5,0,0,0-5.5,5.5V304.4a5.51,5.51,0,0,0,5.5,5.5H575.75a2,2,0,0,1,2,2v421a1,1,0,0,0,1.5.87l26.36-15.09a1,1,0,0,1,1,0L633,733.78a1,1,0,0,0,1.49-.87v-421a2,2,0,0,1,2-2H798.92a5.5,5.5,0,0,0,5.5-5.5V258.71A5.5,5.5,0,0,0,798.92,253.21Z" fill="#0f4881"></path><path d="M629,111a5.5,5.5,0,0,1,5.5,5.5V251.21a2,2,0,0,0,2,2H798.92a5.5,5.5,0,0,1,5.5,5.5V304.4a5.5,5.5,0,0,1-5.5,5.5H636.45a2,2,0,0,0-2,2v421a1,1,0,0,1-1.49.87L606.6,718.69a1,1,0,0,0-.5-.13,1,1,0,0,0-.49.13l-26.36,15.09a1,1,0,0,1-1.5-.87v-421a2,2,0,0,0-2-2H413.06a5.51,5.51,0,0,1-5.5-5.5V258.71a5.5,5.5,0,0,1,5.5-5.5H575.75a2,2,0,0,0,2-2V116.52a5.5,5.5,0,0,1,5.5-5.5H629" fill="#0f4881"></path><path d="M798.92,253.21H636.45a2,2,0,0,1-2-2V116.52A5.5,5.5,0,0,0,629,111h-45.7a5.5,5.5,0,0,0-5.5,5.5V251.21a2,2,0,0,1-2,2H413.06a5.5,5.5,0,0,0-5.5,5.5V304.4a5.51,5.51,0,0,0,5.5,5.5H575.75a2,2,0,0,1,2,2v421a1,1,0,0,0,1.5.87l26.36-15.09a1,1,0,0,1,1,0L633,733.78a1,1,0,0,0,1.49-.87v-421a2,2,0,0,1,2-2H798.92a5.5,5.5,0,0,0,5.5-5.5V258.71A5.5,5.5,0,0,0,798.92,253.21Z" fill="#0f4881"></path><path d="M22.47,824.68V817H48v10.3H46ZM48,923.3v10.31H22.47v-7.68L46,923.3Zm-9.8-51.84c0-18.09,0-36.37-.53-54.46H58.19c-.52,17.74-.52,36-.52,54.46v5.59c0,20.22,0,38.46.52,56.56H37.68c.53-17.75.53-36,.53-54.43ZM48,869H65.83c19.64,0,28.23-6.93,28.23-22.39,0-15.2-8.45-21-25.26-21H48V817H74.62c25.59,0,38.76,11.83,38.76,28.23,0,13.48-9,25.26-33.76,28.21v-1.58c28.34,2.17,39.83,14.06,39.83,29.65S107,933.61,71,933.61H48V925H67.54C88.44,925,99,916.66,99,901.44c0-16.17-10-24-32.5-24H48Z" fill="#0f4881"></path><path d="M144.33,933.61c.35-7.88.52-25.9.52-36.75v-8.27c0-9.62-.17-15.05-.52-22.05L131,865v-6.34l29.31-10.82,2.74,1.78-.53,24.13v23.14c0,10.85.18,28.87.53,36.75Zm29.87-6.7v6.7h-42v-6.7l18.4-3.5h6.25ZM141,818.12c0-7.08,5.5-11.85,12.47-11.85s12.48,4.77,12.48,11.85c0,6.93-5.5,11.84-12.48,11.84S141,825.05,141,818.12Z" fill="#0f4881"></path><path d="M184.53,927l18.19-3.5-6.21,10.19c.35-7.87.53-25.9.53-36.75V820.78l-13.49-1.64v-6.48l29-7.88,2.55,1.51-.7,24.74v31.64l.53,2.27V920.1l-2.5,15.47-27.94-1.93Zm70.92-34.62c0-22-8.64-33.33-21.11-33.33-7.13,0-15.49,4.73-26.26,15.58l-1.58-3.08c10.12-16.36,21.56-23.69,34.46-23.69,18.7,0,33.54,15.71,33.54,43.27,0,27.3-16,44.91-36.3,44.91-12.11,0-22.49-5.9-31.34-24.07l1.58-2.94c8.56,11,16.87,15.92,25.2,15.92C245.56,924.9,255.45,914.37,255.45,892.33Z" fill="#0f4881"></path><path d="M364.08,882.23a36.23,36.23,0,0,1-1.15,9.7H297.24V884h39.15c8.4,0,10.4-3.77,10.4-9.5,0-10.4-7.58-18.54-17.28-18.54-10.09,0-21.26,9-21.26,34.12,0,22,11,33.24,27.27,33.24,10.7,0,17.56-4.76,23.57-11.57l4.6,3.86C357.14,928.43,345.55,936,329.34,936c-24,0-40.07-16.38-40.07-43.45,0-27.45,19.41-44.73,41.36-44.73C350.09,847.81,364.08,861.06,364.08,882.23Z" fill="#0f4881"></path><path d="M403.33,804.78l2.56,1.51-.7,24.74v65.83q0,18.38.53,36.75h-19q.52-18.37.52-36.75v-76l-13.49-1.75v-6.48Zm15.1,122.13v6.7H374v-6.7l18.92-3.5h6.25Z" fill="#0f4881"></path><path d="M492.9,949.67c0-7.09-4.48-12.75-16.32-12.75h-20A49.07,49.07,0,0,1,445,935.79v-.71c-8.93-2.17-13.23-7-13.23-14.15,0-7,4.71-14,16.32-23.85l4.07,2.7c-4.5,5-6.49,8.56-6.49,13.56,0,4.54,2.14,7.52,10.15,7.52h22.35c21,0,30,8.83,30,23.29C508.17,960,492.86,975,463,975c-26.27,0-36.58-9-36.58-21.1,0-8.57,5.67-15.15,22.1-21.86l1.34,1.2c-6.07,6.39-8.48,11-8.48,17.43,0,11.23,8.49,15.75,22.79,15.75C483,966.38,492.9,959,492.9,949.67ZM463.35,847.81c19.85,0,32.68,10.09,32.68,28.59,0,17.77-13.11,28.49-32.82,28.49-20,0-32.83-10.13-32.83-28.49C430.38,858.49,443.5,847.81,463.35,847.81Zm-16.14,28.66c0,12.67,5.51,21.06,15.58,21.06,10.48,0,16.48-8.81,16.48-21.62,0-12.39-5.69-20.74-15.78-20.74C453.25,855.17,447.21,863.8,447.21,876.47ZM506.6,847.7l2.66,1.75v11.6H483.72v-5Z" fill="#0f4881"></path><path d="M592.63,882.23a36.18,36.18,0,0,1-1.16,9.7H525.79V884h39.15c8.4,0,10.4-3.77,10.4-9.5,0-10.4-7.58-18.54-17.28-18.54-10.1,0-21.26,9-21.26,34.12,0,22,11,33.24,27.27,33.24,10.7,0,17.56-4.76,23.57-11.57l4.6,3.86C585.69,928.43,574.1,936,557.88,936c-24,0-40.06-16.38-40.06-43.45,0-27.45,19.41-44.73,41.36-44.73C578.63,847.81,592.63,861.06,592.63,882.23Z" fill="#0f4881"></path><path d="M618.63,933.61c.35-7.88.53-25.9.53-36.75v-8.77c0-9.62-.14-14.55-.53-21.55L605.56,865v-6.34l26.84-10.82,2.73,1.78,2,20v27.22c0,10.85.17,28.87.52,36.75Zm30-6.7v6.7h-41.9v-6.7l18.4-3.5h6.28Zm40.79-47.37v17.32c0,11.2.18,28.87.53,36.75H671.13c.35-7.88.53-25.55.53-36.75V881.55c0-15.13-3.7-20.17-13.42-20.17-8.29,0-15.43,4.29-24,12.29h-4.46v-8.84h9.5l-6.88,3.65c8.9-12.35,21.41-20.67,33.95-20.67C681.88,847.81,689.44,857.26,689.44,879.54Zm-5.54,43.87,17.1,3.5v6.7H659.36v-6.7l18.18-3.5Zm57.83-45v18.46c0,11.2.18,28.87.53,36.75H723.42c.35-7.88.53-25.55.53-36.75V881.27c0-15.52-4.06-19.89-13.49-19.89-7.77,0-15,3.65-24,12.29h-4.77V866H692l-7.8,2.51c10-14.41,22.08-20.67,34.37-20.67C733.61,847.81,741.73,857,741.73,878.4Zm-5.51,45,17.21,3.5v6.7h-41.6v-6.7l17.93-3.5Z" fill="#0f4881"></path><path d="M840.25,882.23a36.23,36.23,0,0,1-1.15,9.7H773.41V884h39.15c8.4,0,10.4-3.77,10.4-9.5,0-10.4-7.58-18.54-17.28-18.54-10.09,0-21.26,9-21.26,34.12,0,22,11,33.24,27.27,33.24,10.7,0,17.56-4.76,23.58-11.57l4.59,3.86C833.31,928.43,821.72,936,805.51,936c-24,0-40.07-16.38-40.07-43.45,0-27.45,19.41-44.73,41.36-44.73C826.26,847.81,840.25,861.06,840.25,882.23Z" fill="#0f4881"></path><path d="M865.84,933.61c.35-7.88.53-25.9.53-36.75v-8.27c0-9.62-.18-15.05-.53-22.05L852.49,865v-6.34l29.32-10.82,2.73,1.78L884,873.72v23.14c0,10.85.17,28.87.52,36.75Zm29.88-6.7v6.7h-42v-6.7l18.39-3.5h6.25ZM862.5,818.12c0-7.08,5.51-11.85,12.48-11.85s12.48,4.77,12.48,11.85c0,6.93-5.5,11.84-12.48,11.84S862.5,825.05,862.5,818.12Z" fill="#0f4881"></path><path d="M919.28,933.61c.35-7.88.52-25.9.52-36.75v-8.77c0-9.62-.17-14.55-.52-21.55L906.21,865v-6.34L933,847.81l2.74,1.78,2,20v27.22c0,10.85.18,28.87.53,36.75Zm30-6.7v6.7H907.4v-6.7l18.39-3.5h6.29Zm41.5-47.37v17.32c0,11.2.18,28.87.53,36.75h-19c.35-7.88.52-25.55.52-36.75V881.12c0-14.85-3.8-19.74-13.3-19.74-8,0-15.57,3.82-24.69,12.29h-4.32v-8.84h9.75L933,868.48c9.37-12.92,22.23-20.67,34.69-20.67C982.8,847.81,990.79,857.26,990.79,879.54Zm-5.69,43.87,17.4,3.5v6.7H960.57v-6.7l18.28-3.5Z" fill="#0f4881"></path><path d="M1056.37,924.79c8.78,0,14.83-4.53,22.17-14.35l1.72,4.19C1073,928.46,1064.13,936,1050,936c-20.93,0-35.49-17.11-35.49-43.37,0-27.14,16.61-44.81,37.63-44.81,11.44,0,19.66,5.24,28.47,19.42l-1.75,4.23c-9.22-9.37-15.65-12.56-22.44-12.56-12.41,0-22.86,10.32-22.86,33.37C1033.51,914.4,1043.16,924.79,1056.37,924.79Zm48.26,2.12v6.7l-28.89,1.82-1.89-17.21V865l.67-2.17v-42l-14.27-1.75v-6.48l29.67-7.88,2.56,1.51-.7,24.74V933.61l-5.37-10Z" fill="#0f4881"></path><path d="M1189.55,882.23a36.18,36.18,0,0,1-1.16,9.7h-65.68V884h39.15c8.4,0,10.4-3.77,10.4-9.5,0-10.4-7.58-18.54-17.29-18.54-10.09,0-21.25,9-21.25,34.12,0,22,11,33.24,27.27,33.24,10.7,0,17.56-4.76,23.57-11.57l4.6,3.86C1182.61,928.43,1171,936,1154.8,936c-24,0-40.07-16.38-40.07-43.45,0-27.45,19.42-44.73,41.37-44.73C1175.55,847.81,1189.55,861.06,1189.55,882.23Z" fill="#0f4881"></path><path d="M253.12,1010.68V1003h25.53v10.3h-2Zm25.53,98.62v10.31H253.12v-7.68l23.5-2.63Zm-9.8-51.84c0-18.09,0-36.37-.52-54.46h20.51c-.53,17.74-.53,36-.53,54.46v5.59c0,20.22,0,38.46.53,56.56H268.33c.52-17.75.52-36,.52-54.43Zm9.8-2.47h17.83c19.63,0,28.23-6.93,28.23-22.39,0-15.2-8.46-21-25.27-21H278.65V1003h26.62c25.58,0,38.76,11.83,38.76,28.23,0,13.48-9.06,25.26-33.76,28.21v-1.58c28.33,2.17,39.82,14.06,39.82,29.65s-12.45,32.1-48.49,32.1h-23V1111h19.54c20.89,0,31.45-8.32,31.45-23.54,0-16.17-10-24-32.49-24h-18.5Z" fill="#0f4881"></path><path d="M394.44,1072.93a242.81,242.81,0,0,1,27.34-7.35v6.59a159.43,159.43,0,0,0-23.27,7c-13.54,5.34-16.25,11.78-16.25,17.74,0,9.14,5.69,12.92,13.14,12.92,5.34,0,8.62-2,18.11-8.83l4.5-3.38,2.27,3.36-5.72,5.89c-9.93,10.08-15.73,15.12-27,15.12-13,0-23.31-7.53-23.31-22C364.27,1089.42,370,1081.29,394.44,1072.93ZM412.63,1104v-41c0-16.69-4.36-21-15.8-21a45.22,45.22,0,0,0-15.93,3l8.43-5.82-3.62,14.23c-1.26,6.93-4.74,10.27-10,10.27s-8.34-2.74-9-7.5c2.65-13.66,15.92-22.35,35.6-22.35,19.27,0,28.06,8.58,28.06,31v37.71c0,6.63,2.16,9.11,5.76,9.11,2.65,0,4.44-1.4,6.4-3.85l3.82,3.63c-4.2,7.47-9.36,10.14-16.63,10.14C419.44,1121.57,413.06,1114.79,412.63,1104Z" fill="#0f4881"></path><path d="M465.34,1082.86v-8.8c0-9.63-.18-14.52-.53-21.52L451.74,1051v-6.34l26.83-10.82,2.74,1.78,1.95,21.77v25.5c0,10.85.18,28.87.53,36.75h-19C465.16,1111.73,465.34,1093.71,465.34,1082.86Zm-12.2,30.05,18.53-3.5h7.72l18.53,3.5v6.7H453.14Zm21.45-53.54h10.86l-3.8,2.23c4.89-17.74,16-27.79,26.35-27.79,5.79,0,11.29,3,13.21,7.91-.11,8.48-3.79,13.21-10.79,13.21-4.38,0-7.92-1.86-11.36-5.31l-4.83-4.78,8.15-.53c-9.57,5.31-15.87,14.21-19.39,26.82l-8.4-.35Z" fill="#0f4881"></path><path d="M540.59,1119.61c.34-7.88.52-25.9.52-36.75v-8.77c0-9.62-.18-14.55-.52-21.55L527.51,1051v-6.34l26.84-10.82,2.73,1.78,2,20.05v27.22c0,10.85.17,28.87.52,36.75Zm30-6.7v6.7H528.71v-6.7l18.39-3.5h6.28Zm41.5-47.37v17.32c0,11.2.17,28.87.52,36.75h-19c.35-7.88.53-25.55.53-36.75v-15.74c0-14.85-3.81-19.74-13.31-19.74-8,0-15.57,3.82-24.69,12.29h-4.31v-8.84h9.74l-7.27,3.65c9.37-12.92,22.22-20.67,34.68-20.67C604.1,1033.81,612.1,1043.26,612.1,1065.54Zm-5.69,43.87,17.39,3.5v6.7H581.87v-6.7l18.29-3.5Z" fill="#0f4881"></path><path d="M670.6,1111.67c3.67,0,7-1.51,11.22-4.62l4.09,4.58c-4.44,6.53-11.9,10.36-21.8,10.36-13.14,0-21.17-6.52-21.17-21.06,0-4.74.18-8.7.18-15.52v-39.3H629.38v-8.34l21.41-2.77-7.85,6.13,6.89-29h12.33L661,1043.05v56C661,1107.85,664.86,1111.67,670.6,1111.67Zm12.95-75.48v9.92H652.12v-9.92Z" fill="#0f4881"></path><path d="M704.91,1082.86v-8.8c0-9.63-.18-14.52-.53-21.52L691.31,1051v-6.34l26.84-10.82,2.73,1.78,2,21.77v25.5c0,10.85.17,28.87.52,36.75h-19C704.73,1111.73,704.91,1093.71,704.91,1082.86Zm-12.2,30.05,18.54-3.5H719l18.54,3.5v6.7H692.71Zm21.45-53.54H725l-3.81,2.23c4.89-17.74,16-27.79,26.35-27.79,5.79,0,11.29,3,13.21,7.91-.1,8.48-3.79,13.21-10.79,13.21-4.38,0-7.92-1.86-11.36-5.31l-4.83-4.78,8.15-.53c-9.57,5.31-15.87,14.21-19.39,26.82l-8.4-.35Z" fill="#0f4881"></path><path d="M795.16,1089.27c0,14.26,4.27,19.15,12.86,19.15,8.35,0,17.27-5.13,25-13.49h4.53v9.68h-9.64l6-3.3c-9.51,14.08-21.34,20.68-33.58,20.68-14.28,0-23.39-8.4-23.18-31.5l.56-46.45,4.21,4-16.09-3.5V1038L794,1035l2,1.79-.88,24.57Zm37.22,31.88-2.16-20.51.56-56.64,4.21,4-16-3.5v-6.3l27.67-3.24,2,1.79-.53,24.57v54l-6.31-6.09,17.56,3.75v6.69Z" fill="#0f4881"></path><path d="M882.46,1074.09c0-9.62-.17-14.55-.52-21.55L868.87,1051v-6.34l26.76-10.82,2.7,1.71,1.33,14.52.73,1v54.71l-.52,1.37v16.11c0,11.93.17,24.57.52,37.74H881.94c.35-13.17.52-25.53.52-37.46Zm32.61,80.14V1161h-46v-6.73l18.91-3.5h7.33ZM919.34,1045c-7.26,0-15.76,5-26.53,15.58l-1.58-3.08c10.12-16.36,21.56-23.69,34.46-23.69,18.7,0,33.54,16.16,33.54,43.72,0,27.31-16,44.46-36.3,44.46-12.11,0-22.49-6-31.34-24.21l1.58-2.91c8.56,11,16,16,24.64,16,12.48,0,22.37-10.08,22.37-32.12S931.54,1045,919.34,1045Z" fill="#0f4881"></path><path d="M874.46,290.31c-13.24-4.51-26.63-8.39-40-11.63v16.14c10.12,2.54,20.22,5.44,30.23,8.73a2,2,0,0,1,1.38,1.91V687.22a2,2,0,0,1-2.59,1.9,427,427,0,0,0-127.76-20,415.22,415.22,0,0,0-71.23,6.27v15.92a398.39,398.39,0,0,1,71.23-6.52c43.76,0,88.15,7.47,132,22.22a11,11,0,0,0,3.4.55,10.69,10.69,0,0,0,10.66-10.69V300.46A10.7,10.7,0,0,0,874.46,290.31Z" fill="#0f4881"></path><path d="M547.75,675.39a414.8,414.8,0,0,0-71.44-6.31,427,427,0,0,0-127.76,20,2,2,0,0,1-2.6-1.9V305.46a2,2,0,0,1,1.38-1.91c10-3.29,20.12-6.19,30.23-8.73V278.68c-13.41,3.24-26.8,7.12-40,11.63a10.7,10.7,0,0,0-7.25,10.15V696.83A10.67,10.67,0,0,0,341,707.52a10.81,10.81,0,0,0,3.4-.56c43.8-14.74,88.2-22.21,132-22.21a399.84,399.84,0,0,1,71.44,6.55Z" fill="#0f4881"></path></svg>