<?xml version="1.0" encoding="UTF-8"?>
<svg version="1.1" xmlns="http://www.w3.org/2000/svg" width="512" height="512">
<path d="M0 0 C168.96 0 337.92 0 512 0 C512 168.96 512 337.92 512 512 C343.04 512 174.08 512 0 512 C0 343.04 0 174.08 0 0 Z " fill="#FDFDFD" transform="translate(0,0)"/>
<path d="M0 0 C12.57508683 6.56961845 21.63891315 15.69047334 26.3125 29.125 C28.24537839 35.78875414 30.24848372 45.50303256 27 52 C32.58749761 53.97506784 36.99153662 54.95480642 42.4921875 52.33984375 C45.51358359 50.41560502 48.39708465 48.29657805 51.29052734 46.18652344 C60.03785451 40.11511383 72.07211986 34.18201628 83 36 C87.39003031 37.6884732 91.00699591 40.38797374 94 44 C95.66986383 52.17742138 93.44072888 60.70365622 91.42382812 68.64306641 C90.29006406 73.17307923 89.40910444 77.30124393 90 82 C91.86178757 84.4168565 91.86178757 84.4168565 94.5 86.3125 C101.00244826 91.77236162 106.49629703 97.29115163 109.86328125 105.203125 C113.60705976 114.43960434 113.60705976 114.43960434 121.29296875 120.1796875 C124.41964312 121.22018568 127.58833117 122.01882863 130.78515625 122.8125 C136.71554658 124.30258709 140.6406201 127.55104913 144.06103516 132.55102539 C145.49287062 136.28548757 145.32532852 139.92698978 145.3359375 143.89453125 C145.3425943 144.76011154 145.3492511 145.62569183 145.35610962 146.51750183 C145.36622337 148.34733968 145.37092703 150.17721431 145.37060547 152.00708008 C145.3749686 154.7924559 145.41127267 157.57623356 145.44921875 160.36132812 C145.45508938 162.14322378 145.45905712 163.92512692 145.4609375 165.70703125 C145.47530853 166.53330521 145.48967957 167.35957916 145.50448608 168.21089172 C145.45179535 174.95336471 143.64263789 179.19720223 138.9375 184.1875 C133.80279061 187.35572494 128.03853096 189.48271658 122.0859375 190.49609375 C117.70464054 191.27458866 114.91980955 191.79613162 112.140625 195.43359375 C111.01470939 197.49509162 109.92386619 199.57601741 108.86328125 201.671875 C103.319528 211.57392484 91.67710797 224.34035522 81 228 C80.95512451 228.59312988 80.91024902 229.18625977 80.86401367 229.79736328 C78.25295892 263.39965448 78.25295892 263.39965448 72 270 C64.4968433 275.16472894 58.77578922 275.21283595 49.875 275.25 C48.66328125 275.270625 47.4515625 275.29125 46.203125 275.3125 C38.53970666 275.3458918 32.10258837 275.24756996 25.86328125 270.30859375 C20.59094315 263.94725887 16.37755874 257.25069754 15 249 C13.78944946 249.24339111 13.78944946 249.24339111 12.55444336 249.49169922 C8.37703538 250.08908664 4.34168857 250.14347005 0.12890625 250.1328125 C-0.7116481 250.13376923 -1.55220245 250.13472595 -2.41822815 250.13571167 C-4.18905716 250.1363896 -5.95988871 250.13456239 -7.73071289 250.13037109 C-10.42535042 250.12502411 -13.11982078 250.13032579 -15.81445312 250.13671875 C-17.54166703 250.13605777 -19.26888083 250.13477619 -20.99609375 250.1328125 C-22.19328285 250.13584885 -22.19328285 250.13584885 -23.41465759 250.13894653 C-28.0451466 250.11976429 -32.43159952 249.76475426 -37 249 C-37.12955078 249.92619141 -37.12955078 249.92619141 -37.26171875 250.87109375 C-38.55078857 258.64099163 -40.94473942 265.60013114 -47 270.9375 C-53.3871726 275.32868117 -58.77966317 275.33632301 -66.3125 275.3125 C-67.31990234 275.32861328 -68.32730469 275.34472656 -69.36523438 275.36132812 C-76.48515729 275.36596651 -82.40770193 274.81025796 -88.20703125 270.2734375 C-88.73683594 269.64695312 -89.26664062 269.02046875 -89.8125 268.375 C-90.35519531 267.76398438 -90.89789063 267.15296875 -91.45703125 266.5234375 C-95.83312756 259.36658126 -96.71352679 251.31790121 -97.625 243.125 C-97.80675781 241.60712891 -97.80675781 241.60712891 -97.9921875 240.05859375 C-98.95606859 231.87608145 -98.95606859 231.87608145 -99.15161133 227.9765625 C-99.46984955 222.08494855 -99.89923925 218.91302234 -104.4375 214.75 C-114.41350374 204.71690897 -121.04507428 193.21862244 -126 180 C-126.31582031 179.20207031 -126.63164062 178.40414062 -126.95703125 177.58203125 C-131.21171937 166.07551018 -131.27933861 154.0891541 -131 142 C-131.59425781 141.86464844 -132.18851563 141.72929687 -132.80078125 141.58984375 C-140.15638079 139.67944698 -145.7490721 136.2323991 -152 132 C-155.79225972 130.10387014 -160.55212792 131.11145021 -164.71484375 131.2578125 C-168 131 -168 131 -169.95703125 129.6875 C-171 128 -171 128 -170.75 124.875 C-170 122 -170 122 -169 121 C-166.32941149 120.85884839 -163.67567762 120.95752893 -161 121 C-161.495 119.865625 -161.99 118.73125 -162.5 117.5625 C-164.76401854 111.42040186 -165.08669037 105.82486757 -162.4375 99.75 C-160.09817823 95.67452654 -157.39163808 92.79998828 -153 91 C-147.08459125 90.02503564 -142.017896 90.53526228 -137 94 C-132.29805192 99.08318711 -131.54742343 103.33072863 -131.57421875 110.07421875 C-132.17479761 114.20113219 -133.97557494 116.7751995 -136.4921875 120.02734375 C-138.26757037 122.22204797 -138.26757037 122.22204797 -140 126 C-136.7 127.32 -133.4 128.64 -130 130 C-129.9071875 128.2365625 -129.9071875 128.2365625 -129.8125 126.4375 C-127.19176451 104.07389051 -113.06848871 83.87986994 -96 70 C-86.22241494 62.86811443 -71.42606825 53 -59 53 C-59.33 52.34 -59.66 51.68 -60 51 C-60.89072134 36.49151972 -59.19858106 24.79856985 -50 13 C-38.04801491 -0.25959191 -17.16063933 -7.16353219 0 0 Z " fill="#FCFDFC" transform="translate(272,115)"/>
<path d="M0 0 C12.57508683 6.56961845 21.63891315 15.69047334 26.3125 29.125 C28.24537839 35.78875414 30.24848372 45.50303256 27 52 C32.58749761 53.97506784 36.99153662 54.95480642 42.4921875 52.33984375 C45.51358359 50.41560502 48.39708465 48.29657805 51.29052734 46.18652344 C60.03785451 40.11511383 72.07211986 34.18201628 83 36 C87.39003031 37.6884732 91.00699591 40.38797374 94 44 C95.66986383 52.17742138 93.44072888 60.70365622 91.42382812 68.64306641 C90.29006406 73.17307923 89.40910444 77.30124393 90 82 C91.86178757 84.4168565 91.86178757 84.4168565 94.5 86.3125 C101.00244826 91.77236162 106.49629703 97.29115163 109.86328125 105.203125 C113.60705976 114.43960434 113.60705976 114.43960434 121.29296875 120.1796875 C124.41964312 121.22018568 127.58833117 122.01882863 130.78515625 122.8125 C136.71554658 124.30258709 140.6406201 127.55104913 144.06103516 132.55102539 C145.49287062 136.28548757 145.32532852 139.92698978 145.3359375 143.89453125 C145.3425943 144.76011154 145.3492511 145.62569183 145.35610962 146.51750183 C145.36622337 148.34733968 145.37092703 150.17721431 145.37060547 152.00708008 C145.3749686 154.7924559 145.41127267 157.57623356 145.44921875 160.36132812 C145.45508938 162.14322378 145.45905712 163.92512692 145.4609375 165.70703125 C145.47530853 166.53330521 145.48967957 167.35957916 145.50448608 168.21089172 C145.45179535 174.95336471 143.64263789 179.19720223 138.9375 184.1875 C133.80279061 187.35572494 128.03853096 189.48271658 122.0859375 190.49609375 C117.70464054 191.27458866 114.91980955 191.79613162 112.140625 195.43359375 C111.01470939 197.49509162 109.92386619 199.57601741 108.86328125 201.671875 C103.319528 211.57392484 91.67710797 224.34035522 81 228 C80.95512451 228.59312988 80.91024902 229.18625977 80.86401367 229.79736328 C78.25295892 263.39965448 78.25295892 263.39965448 72 270 C64.4968433 275.16472894 58.77578922 275.21283595 49.875 275.25 C48.66328125 275.270625 47.4515625 275.29125 46.203125 275.3125 C38.53970666 275.3458918 32.10258837 275.24756996 25.86328125 270.30859375 C20.59094315 263.94725887 16.37755874 257.25069754 15 249 C13.78944946 249.24339111 13.78944946 249.24339111 12.55444336 249.49169922 C8.37703538 250.08908664 4.34168857 250.14347005 0.12890625 250.1328125 C-0.7116481 250.13376923 -1.55220245 250.13472595 -2.41822815 250.13571167 C-4.18905716 250.1363896 -5.95988871 250.13456239 -7.73071289 250.13037109 C-10.42535042 250.12502411 -13.11982078 250.13032579 -15.81445312 250.13671875 C-17.54166703 250.13605777 -19.26888083 250.13477619 -20.99609375 250.1328125 C-22.19328285 250.13584885 -22.19328285 250.13584885 -23.41465759 250.13894653 C-28.0451466 250.11976429 -32.43159952 249.76475426 -37 249 C-37.12955078 249.92619141 -37.12955078 249.92619141 -37.26171875 250.87109375 C-38.55078857 258.64099163 -40.94473942 265.60013114 -47 270.9375 C-53.3871726 275.32868117 -58.77966317 275.33632301 -66.3125 275.3125 C-67.31990234 275.32861328 -68.32730469 275.34472656 -69.36523438 275.36132812 C-76.48515729 275.36596651 -82.40770193 274.81025796 -88.20703125 270.2734375 C-88.73683594 269.64695312 -89.26664062 269.02046875 -89.8125 268.375 C-90.35519531 267.76398438 -90.89789063 267.15296875 -91.45703125 266.5234375 C-95.83312756 259.36658126 -96.71352679 251.31790121 -97.625 243.125 C-97.80675781 241.60712891 -97.80675781 241.60712891 -97.9921875 240.05859375 C-98.95606859 231.87608145 -98.95606859 231.87608145 -99.15161133 227.9765625 C-99.46984955 222.08494855 -99.89923925 218.91302234 -104.4375 214.75 C-114.41350374 204.71690897 -121.04507428 193.21862244 -126 180 C-126.31582031 179.20207031 -126.63164062 178.40414062 -126.95703125 177.58203125 C-131.21171937 166.07551018 -131.27933861 154.0891541 -131 142 C-131.59425781 141.86464844 -132.18851563 141.72929687 -132.80078125 141.58984375 C-140.15638079 139.67944698 -145.7490721 136.2323991 -152 132 C-155.79225972 130.10387014 -160.55212792 131.11145021 -164.71484375 131.2578125 C-168 131 -168 131 -169.95703125 129.6875 C-171 128 -171 128 -170.75 124.875 C-170 122 -170 122 -169 121 C-166.32941149 120.85884839 -163.67567762 120.95752893 -161 121 C-161.495 119.865625 -161.99 118.73125 -162.5 117.5625 C-164.76401854 111.42040186 -165.08669037 105.82486757 -162.4375 99.75 C-160.09817823 95.67452654 -157.39163808 92.79998828 -153 91 C-147.08459125 90.02503564 -142.017896 90.53526228 -137 94 C-132.29805192 99.08318711 -131.54742343 103.33072863 -131.57421875 110.07421875 C-132.17479761 114.20113219 -133.97557494 116.7751995 -136.4921875 120.02734375 C-138.26757037 122.22204797 -138.26757037 122.22204797 -140 126 C-136.7 127.32 -133.4 128.64 -130 130 C-129.9071875 128.2365625 -129.9071875 128.2365625 -129.8125 126.4375 C-127.19176451 104.07389051 -113.06848871 83.87986994 -96 70 C-86.22241494 62.86811443 -71.42606825 53 -59 53 C-59.33 52.34 -59.66 51.68 -60 51 C-60.89072134 36.49151972 -59.19858106 24.79856985 -50 13 C-38.04801491 -0.25959191 -17.16063933 -7.16353219 0 0 Z M68 52 C67.29746094 52.2784375 66.59492188 52.556875 65.87109375 52.84375 C58.40705574 55.94152606 50.73659813 59.87245928 45.375 66 C43 68 43 68 40.98828125 68.15234375 C37.13068312 67.79212661 33.48182515 66.88379205 29.75 65.875 C25.25118018 64.76997243 25.25118018 64.76997243 21 66 C18.82053354 68.85251385 18.82053354 68.85251385 17 72 C16 73 15 74 14 75 C14 75.66 14 76.32 14 77 C14.83144531 77.26554687 15.66289062 77.53109375 16.51953125 77.8046875 C17.60621094 78.15789062 18.69289063 78.51109375 19.8125 78.875 C20.89144531 79.22304687 21.97039062 79.57109375 23.08203125 79.9296875 C26 81 26 81 29 83 C29.3125 86.5 29.3125 86.5 29 90 C28.01 90.99 28.01 90.99 27 92 C21.40756391 91.8104259 16.62174345 90.60445672 11.28125 88.9765625 C2.5844112 86.52958588 -5.8318707 86.38168608 -14.8125 86.5 C-15.59871735 86.50387726 -16.38493469 86.50775452 -17.19497681 86.51174927 C-35.70762877 85.74010001 -35.70762877 85.74010001 -52 92 C-55.4375 92.1875 -55.4375 92.1875 -59 92 C-61 90 -61 90 -61.125 86.375 C-61.08375 85.26125 -61.0425 84.1475 -61 83 C-60.18015625 82.66226563 -59.3603125 82.32453125 -58.515625 81.9765625 C-57.43796875 81.53054687 -56.3603125 81.08453125 -55.25 80.625 C-54.18265625 80.18414062 -53.1153125 79.74328125 -52.015625 79.2890625 C-49.62444074 78.26692415 -47.30616817 77.19786405 -45 76 C-47.42938563 72.40955733 -49.91583951 69.05677008 -53 66 C-56.38083536 65.54488755 -57.0376048 65.71249747 -60 67 C-60.8971875 67.33257812 -61.794375 67.66515625 -62.71875 68.0078125 C-87.096161 77.49489771 -103.43337918 93.21141583 -114 117 C-121.36762987 136.2795278 -120.46034728 161.37411997 -112.234375 180.14453125 C-106.94392859 191.55305427 -99.65316711 201.14846128 -91.6640625 210.80859375 C-89.15996094 214.10624862 -87.81187181 216.92190144 -87.37744141 221.04663086 C-87.29039948 221.83102036 -87.20335754 222.61540985 -87.11367798 223.42356873 C-87.02717987 224.26218948 -86.94068176 225.10081024 -86.8515625 225.96484375 C-86.64896135 227.75201259 -86.44581963 229.53912021 -86.2421875 231.32617188 C-85.9306863 234.13435032 -85.62443459 236.94286167 -85.328125 239.75268555 C-85.0382855 242.47112264 -84.72756301 245.1865479 -84.4140625 247.90234375 C-84.29038803 249.15723854 -84.29038803 249.15723854 -84.16421509 250.43748474 C-83.5763586 255.39709976 -82.70638175 258.37137141 -79 262 C-75.37568203 263.81215899 -71.17895462 263.31311698 -67.1875 263.375 C-66.28451172 263.41238281 -65.38152344 263.44976562 -64.45117188 263.48828125 C-60.1784664 263.54479021 -57.71671869 263.46033927 -54.0625 261.11328125 C-51.26831426 256.89554254 -50.07979027 252.67681143 -48.8125 247.8125 C-48.32463591 246.00498265 -47.83139667 244.19890497 -47.33203125 242.39453125 C-47.12296143 241.59893799 -46.9138916 240.80334473 -46.69848633 239.98364258 C-46 238 -46 238 -44 236 C-41.42578125 235.98828125 -41.42578125 235.98828125 -38.3125 236.3125 C-37.29800781 236.41175781 -36.28351563 236.51101563 -35.23828125 236.61328125 C-33.06970024 236.87225534 -30.90578545 237.17361833 -28.7487793 237.51586914 C-25.04607533 237.99404967 -21.51269707 238.12935563 -17.78125 238.1328125 C-17.11967896 238.13376923 -16.45810791 238.13472595 -15.77648926 238.13571167 C-14.388264 238.13638724 -13.00003546 238.13457684 -11.61181641 238.13037109 C-9.50546062 238.12501389 -7.39931802 238.13033736 -5.29296875 238.13671875 C-3.93489537 238.13605786 -2.57682212 238.13477647 -1.21875 238.1328125 C-0.00123047 238.13168457 1.21628906 238.13055664 2.47070312 238.12939453 C6.04516001 237.9983443 9.46757726 237.54470317 13 237 C14.8115721 236.9383819 16.62505032 236.91267192 18.4375 236.9375 C19.73494141 236.95103516 19.73494141 236.95103516 21.05859375 236.96484375 C22.01958984 236.98224609 22.01958984 236.98224609 23 237 C23.37125 238.216875 23.7425 239.43375 24.125 240.6875 C25.51556946 244.81985265 27.12596359 248.81856633 28.875 252.8125 C29.58269531 254.43091797 29.58269531 254.43091797 30.3046875 256.08203125 C32.30995509 259.53349414 33.47309987 261.07706479 37 263 C40.84477822 263.60010687 44.61529059 263.60372351 48.5 263.5625 C49.53253906 263.58634766 50.56507813 263.61019531 51.62890625 263.63476562 C52.62792969 263.63283203 53.62695312 263.63089844 54.65625 263.62890625 C55.56181641 263.62963135 56.46738281 263.63035645 57.40039062 263.63110352 C61.19572444 262.70971566 62.6446338 261.07672114 65 258 C65.6600262 255.3475047 66.02814433 253.18447945 66.22265625 250.50390625 C66.294879 249.79274155 66.36710175 249.08157684 66.44151306 248.34886169 C66.66953295 246.08817463 66.86875786 243.82636367 67.0625 241.5625 C67.26167228 239.30255854 67.46763728 237.04421874 67.69419861 234.78684998 C67.83428158 233.38707934 67.95890229 231.98564178 68.06520081 230.582901 C68.63053769 224.86140907 70.78660023 220.98909731 75.04296875 217.1640625 C75.75066406 216.65617188 76.45835937 216.14828125 77.1875 215.625 C77.97640625 215.03074219 78.7653125 214.43648437 79.578125 213.82421875 C80.37734375 213.22222656 81.1765625 212.62023437 82 212 C88.85819877 206.68849291 93.76453665 200.65177664 98.640625 193.5625 C99.03652832 192.99039795 99.43243164 192.4182959 99.84033203 191.82885742 C101.05030849 190.0000338 101.05030849 190.0000338 101.99951172 187.9152832 C104.36261087 183.24888974 106.40425011 181.45534614 111.4140625 179.79296875 C113.4762517 179.22731711 115.54720034 178.69280648 117.625 178.1875 C119.70270345 177.64765445 121.77835001 177.09981236 123.8515625 176.54296875 C124.76760254 176.31633545 125.68364258 176.08970215 126.62744141 175.85620117 C129.32067959 174.8842742 130.45015918 174.41752566 132 172 C132.31030476 169.37806544 132.44430571 166.99790508 132.43359375 164.375 C132.4388356 163.63169434 132.44407745 162.88838867 132.44947815 162.12255859 C132.45589608 160.55242155 132.45456424 158.98223642 132.44604492 157.41210938 C132.43752921 155.00824564 132.46630361 152.6067542 132.49804688 150.203125 C132.49965886 148.67708405 132.4990814 147.15103888 132.49609375 145.625 C132.51294472 144.54677979 132.51294472 144.54677979 132.53013611 143.44677734 C132.48572039 140.27077965 132.44475963 138.47732699 130.23291016 136.10351562 C128.06537853 135.0323104 126.12313615 134.29255999 123.77734375 133.71875 C122.99166016 133.51636719 122.20597656 133.31398438 121.39648438 133.10546875 C119.75347825 132.70091601 118.11024759 132.29727411 116.46679688 131.89453125 C115.68240234 131.69214844 114.89800781 131.48976563 114.08984375 131.28125 C113.37691162 131.10658203 112.66397949 130.93191406 111.92944336 130.75195312 C108.43089599 129.38848028 107.19713455 127.44863045 105.7109375 124.06640625 C105.27007812 122.91011719 104.82921875 121.75382812 104.375 120.5625 C99.64459228 108.98576568 91.98043575 100.52791219 82.69921875 92.375 C81.36310547 91.199375 81.36310547 91.199375 80 90 C79.22269531 89.38125 78.44539062 88.7625 77.64453125 88.125 C75.1890194 84.95208208 75.58734905 82.95986195 76 79 C76.89501043 74.59171276 78.06439704 70.25909975 79.22265625 65.9140625 C80.70273649 60.09523277 81.24465052 55.00617031 81 49 C76.1877729 48.54885371 72.34966954 50.17518385 68 52 Z " fill="#45B4CB" transform="translate(272,115)"/>
<path d="M0 0 C0.33 0 0.66 0 1 0 C1.03738281 0.90621094 1.07476562 1.81242188 1.11328125 2.74609375 C1.50637297 10.02985208 2.21978837 16.26467559 5 23 C5.33902344 23.92167969 5.67804688 24.84335937 6.02734375 25.79296875 C15.92638716 51.55714571 38.74743685 70.62291384 63.1171875 82.3359375 C73.67120141 87.00610264 84.69278199 90.70700523 96 93 C96.92683594 93.20882812 97.85367188 93.41765625 98.80859375 93.6328125 C137.43036201 100.8636339 176.37072023 89.72082575 208.36938477 68.31176758 C211.14994483 66.4043892 213.73793573 64.5125071 216 62 C216.66 62.33 217.32 62.66 218 63 C210.54460679 73.60807279 203.19936099 82.4971319 192.74755859 90.1953125 C188.10637145 93.66564598 186.35241221 95.67013585 185.48510742 101.40405273 C185.352166 102.74661519 185.22599684 104.08986002 185.10546875 105.43359375 C184.95330934 106.90177953 184.80028781 108.36987616 184.64648438 109.83789062 C184.41350046 112.13900572 184.18725623 114.44016176 183.97631836 116.7434082 C183.76827836 118.97595682 183.53264192 121.20424906 183.29296875 123.43359375 C183.20984688 124.45881386 183.20984688 124.45881386 183.12504578 125.50474548 C182.71570629 129.12256144 181.98387958 131.0210115 179.75097656 133.93139648 C176.72706939 136.20523083 175.4154518 136.64070588 171.69140625 136.6640625 C170.69689453 136.67050781 169.70238281 136.67695313 168.67773438 136.68359375 C167.64970703 136.66425781 166.62167969 136.64492188 165.5625 136.625 C164.53833984 136.64433594 163.51417969 136.66367187 162.45898438 136.68359375 C157.73137321 136.65299432 154.72400415 136.40586869 150.55078125 134.06640625 C147.25152092 130.1002204 145.47674153 126.09316343 143.625 121.3125 C143.27050781 120.44560547 142.91601562 119.57871094 142.55078125 118.68554688 C140 112.35783663 140 112.35783663 140 110 C138.4792733 109.97246169 136.95839326 109.95336625 135.4375 109.9375 C134.16712891 109.92009766 134.16712891 109.92009766 132.87109375 109.90234375 C129.92673287 109.94627413 129.92673287 109.94627413 126.75634766 110.49560547 C121.17014339 111.24570933 115.62565977 111.18597233 109.99633789 111.18530273 C107.96673949 111.18746879 105.93770428 111.20560979 103.90820312 111.22460938 C96.13425974 111.25688897 88.66371547 110.71682173 80.99047852 109.4309082 C78.24172253 109.03483062 75.76716473 108.76826699 73 109 C70.7572761 111.2427239 70.45969902 112.38168485 69.66796875 115.39453125 C69.42626953 116.26787109 69.18457031 117.14121094 68.93554688 118.04101562 C68.44058823 119.874818 67.95347832 121.71075855 67.47460938 123.54882812 C65.99080463 128.8492435 64.82300089 132.87052279 60 136 C56.63960618 136.66953669 53.41560305 136.65407776 50 136.5625 C49.11054688 136.57345703 48.22109375 136.58441406 47.3046875 136.59570312 C43.34079148 136.55133115 40.58896575 136.2891147 37 134.52734375 C31.07730854 127.04300513 31.88597435 113.61006787 31.05175781 104.28369141 C30.22801854 95.22456849 29.16230112 88.10365878 23 81 C22.31260742 80.1342334 22.31260742 80.1342334 21.61132812 79.25097656 C20.74164883 78.15584865 19.86043584 77.06976493 18.96704102 75.99389648 C5.54942954 59.80830768 -1.20252763 42.31377812 -1.125 21.1875 C-1.12886719 20.14529297 -1.13273438 19.10308594 -1.13671875 18.02929688 C-1.12906937 11.93656347 -0.79537332 6.04104972 0 0 Z " fill="#A9E7EF" transform="translate(155,242)"/>
<path d="M0 0 C6.58592725 5.31301694 11.47594736 11.98255683 12.85302734 20.48144531 C13.92334501 30.79867936 12.85350688 39.8256274 6.51171875 48.375 C2.47302925 52.76185239 -1.98684578 56.94203561 -8.09448242 57.69726562 C-11.28868586 57.78861204 -14.4803813 57.84553233 -17.67578125 57.875 C-19.32416992 57.936875 -19.32416992 57.936875 -21.00585938 58 C-28.80959431 58.07445424 -33.62010551 56.57254923 -39.48828125 51.375 C-46.83913769 44.04555761 -49.60129185 36.91661547 -49.73828125 26.5625 C-49.66134046 17.35845836 -47.30796426 10.27886962 -40.69921875 3.5546875 C-28.92912328 -7.30652029 -13.58575338 -8.87232874 0 0 Z " fill="#F7FCFB" transform="translate(274.48828125,130.625)"/>
<path d="M0 0 C4.70588235 0.70588235 4.70588235 0.70588235 6 2 C6.84092665 8.58725872 4.71926855 13.57308651 1 19 C-3.92551024 23.83613606 -9.21843028 27.02478769 -16.1875 27.25 C-20 27 -20 27 -22 25 C-21.625 22.375 -21.625 22.375 -21 20 C-20.41992188 19.82984375 -19.83984375 19.6596875 -19.2421875 19.484375 C-13.12078174 17.58532503 -7.73782639 15.8550005 -4.25 10.125 C-3.04549504 7.11373761 -2.00377218 4.08301455 -1 1 C-0.67 0.67 -0.34 0.34 0 0 Z " fill="#4EC3C6" transform="translate(274,156)"/>
<path d="M0 0 C1 1 1 1 1.1875 3.4375 C1 6 1 6 -1 8 C-2.258125 8.28875 -3.51625 8.5775 -4.8125 8.875 C-8.73839657 9.79957709 -11.13417469 11.05229397 -14 14 C-16.49813636 18.1635606 -17.78867075 22.34104135 -19 27 C-21.375 27.625 -21.375 27.625 -24 28 C-26 26 -26 26 -26.375 22.375 C-26.1703602 15.71818768 -23.11781228 10.92935953 -18.625 6.1875 C-12.86179246 0.83943876 -7.7915396 -0.85296855 0 0 Z " fill="#4CC6C3" transform="translate(258,133)"/>
<path d="M0 0 C3.03978021 0.68164768 4.80055419 2.23591662 6.93359375 4.43359375 C8.48383839 7.53408303 8.2235139 10.01253593 7.93359375 13.43359375 C6.1379697 16.18688396 4.88104453 17.95986836 1.93359375 19.43359375 C-1.07747802 19.77912658 -3.15953402 20.00607528 -6.06640625 19.43359375 C-9.16099861 16.85476678 -10.62063859 15.30801024 -11.54296875 11.4296875 C-11.8153447 7.65226308 -11.15194444 5.56190103 -9.06640625 2.43359375 C-5.71397384 0.19863881 -3.9372435 -0.24561254 0 0 Z " fill="#44BBC5" transform="translate(351.06640625,228.56640625)"/>
<path d="M0 0 C2.375 0.875 2.375 0.875 4.375 2.875 C4.875 5.5625 4.875 5.5625 4.375 8.875 C2.60483136 11.4427737 0.57098621 13.66594244 -1.625 15.875 C-4.625 14.875 -4.625 14.875 -5.8125 13.25 C-6.94767332 9.93180108 -6.99815568 7.35778632 -6.625 3.875 C-4.56869278 0.82861894 -3.73077528 -0.17765597 0 0 Z " fill="#F0F8FA" transform="translate(125.625,216.125)"/>
<path d="M0 0 C0.66 0.33 1.32 0.66 2 1 C1.57847656 1.47050781 1.15695313 1.94101563 0.72265625 2.42578125 C0.17480469 3.04839844 -0.37304688 3.67101562 -0.9375 4.3125 C-1.48277344 4.92738281 -2.02804688 5.54226562 -2.58984375 6.17578125 C-5.93224334 10.49960565 -5.34648459 15.80273112 -5 21 C-4.12899451 24.4614054 -4.12899451 24.4614054 -3 27 C-3.66 27 -4.32 27 -5 27 C-7.76186482 21.59134806 -8.94881114 17.07864722 -8 11 C-6.40643051 6.30101303 -4.42820102 2.53040058 0 0 Z " fill="#51A2D8" transform="translate(116,208)"/>
<path d="M0 0 C2.0625 0.4375 2.0625 0.4375 4 1 C3.01 1.66 2.02 2.32 1 3 C1 4.32 1 5.64 1 7 C5.62 7.66 10.24 8.32 15 9 C15 9.33 15 9.66 15 10 C12.72975032 10.08097324 10.45867925 10.13917704 8.1875 10.1875 C6.29064453 10.23970703 6.29064453 10.23970703 4.35546875 10.29296875 C1 10 1 10 -0.96484375 8.68359375 C-2 7 -2 7 -1.75 3.875 C-1 1 -1 1 0 0 Z " fill="#529CDC" transform="translate(103,236)"/>
<path d="M0 0 C-0.79664063 0.23074219 -1.59328125 0.46148437 -2.4140625 0.69921875 C-8.6877001 2.63015587 -13.33458601 4.33458601 -18 9 C-16.72509667 5.06904808 -15.65211941 3.01827652 -12 1 C-7.69884633 -0.49566866 -4.43603739 -1.38626168 0 0 Z " fill="#5EC7CA" transform="translate(392,294)"/>
</svg>
